{
  "asset": {
    "version": "2.0",
    "generator": "3dpea GLTFExporter"
  },
  "scenes": [
    {
      "name": "AuxScene",
      "nodes": [
        1
      ]
    }
  ],
  "scene": 0,
  "nodes": [
    {
      "matrix": [
        1,
        0,
        0,
        0,
        0,
        1,
        0,
        0,
        0,
        0,
        1,
        0,
        -0.13478927314281464,
        0.8431781530380249,
        -0.17418056726455688,
        1
      ],
      "name": "Sphere",
      "extras": {
        "name": "Sphere"
      },
      "mesh": 0
    },
    {
      "name": "untitled.glb",
      "children": [
        0
      ]
    }
  ],
  "bufferViews": [
    {
      "buffer": 0,
      "byteOffset": 0,
      "byteLength": 47400,
      "target": 34962,
      "byteStride": 12
    },
    {
      "buffer": 0,
      "byteOffset": 47400,
      "byteLength": 47400,
      "target": 34962,
      "byteStride": 12
    },
    {
      "buffer": 0,
      "byteOffset": 94800,
      "byteLength": 31600,
      "target": 34962,
      "byteStride": 8
    },
    {
      "buffer": 0,
      "byteOffset": 126400,
      "byteLength": 11568,
      "target": 34963
    }
  ],
  "buffers": [
    {
      "byteLength": 137968,
      "uri": "data:application/octet-stream;base64,"
    }
  ],
  "accessors": [
    {
      "bufferView": 0,
      "componentType": 5126,
      "count": 3950,
      "max": [
        1.6747325658798218,
        2.408095598220825,
        1.1690386533737183
      ],
      "min": [
        -1.6639386415481567,
        -1,
        -1.3300843238830566
      ],
      "type": "VEC3"
    },
    {
      "bufferView": 1,
      "componentType": 5126,
      "count": 3950,
      "max": [
        0.9998613595962524,
        0.9965352416038513,
        0.9965589642524719
      ],
      "min": [
        -0.9998613595962524,
        -0.9951420426368713,
        -0.9904472231864929
      ],
      "type": "VEC3"
    },
    {
      "bufferView": 2,
      "componentType": 5126,
      "count": 3950,
      "max": [
        1,
        1
      ],
      "min": [
        0,
        0
      ],
      "type": "VEC2"
    },
    {
      "bufferView": 3,
      "componentType": 5123,
      "count": 5784,
      "max": [
        3949
      ],
      "min": [
        0
      ],
      "type": "SCALAR"
    }
  ],
  "materials": [
    {
      "pbrMetallicRoughness": {
        "baseColorFactor": [
          0.6666666666666666,
          0.6666666666666666,
          0.6666666666666666,
          1
        ],
        "metallicFactor": 0.3,
        "roughnessFactor": 0.45
      },
      "doubleSided": true,
      "name": "Default Material",
      "extensions": {
        "KHR_materials_ior": {
          "ior": 1.4999999999999998
        }
      }
    }
  ],
  "meshes": [
    {
      "primitives": [
        {
          "mode": 4,
          "attributes": {
            "POSITION": 0,
            "NORMAL": 1,
            "TEXCOORD_0": 2
          },
          "indices": 3,
          "material": 0
        }
      ]
    }
  ],
  "extensionsUsed": [
    "KHR_materials_ior"
  ]
}