{
  "asset": {
    "version": "2.0",
    "generator": "3dpea GLTFExporter"
  },
  "scenes": [
    {
      "name": "AuxScene",
      "nodes": [
        1
      ]
    }
  ],
  "scene": 0,
  "nodes": [
    {
      "matrix": [
        0.14077556133270264,
        0,
        0,
        0,
        0,
        0.14077556133270264,
        0,
        0,
        0,
        0,
        0.14077556133270264,
        0,
        0,
        0,
        0,
        1
      ],
      "name": "Suzanne",
      "extras": {
        "name": "Suzanne"
      },
      "mesh": 0
    },
    {
      "name": "monke3.glb",
      "children": [
        0
      ]
    }
  ],
  "bufferViews": [
    {
      "buffer": 0,
      "byteOffset": 0,
      "byteLength": 23592,
      "target": 34962,
      "byteStride": 12
    },
    {
      "buffer": 0,
      "byteOffset": 23592,
      "byteLength": 23592,
      "target": 34962,
      "byteStride": 12
    },
    {
      "buffer": 0,
      "byteOffset": 47184,
      "byteLength": 15728,
      "target": 34962,
      "byteStride": 8
    },
    {
      "buffer": 0,
      "byteOffset": 62912,
      "byteLength": 5808,
      "target": 34963
    }
  ],
  "buffers": [
    {
      "byteLength": 68720,
      "uri": "data:application/octet-stream;base64,"
    }
  ],
  "accessors": [
    {
      "bufferView": 0,
      "componentType": 5126,
      "count": 1966,
      "max": [
        1.3671875,
        0.984375,
        0.8515625
      ],
      "min": [
        -1.3671875,
        -0.984375,
        -0.8515625
      ],
      "type": "VEC3"
    },
    {
      "bufferView": 1,
      "componentType": 5126,
      "count": 1966,
      "max": [
        1,
        0.9970178604125977,
        1
      ],
      "min": [
        -1,
        -0.99240642786026,
        -0.9864755868911743
      ],
      "type": "VEC3"
    },
    {
      "bufferView": 2,
      "componentType": 5126,
      "count": 1966,
      "max": [
        0.9998599886894226,
        0.9907389879226685
      ],
      "min": [
        0.00014000000373926014,
        0.014658987522125244
      ],
      "type": "VEC2"
    },
    {
      "bufferView": 3,
      "componentType": 5123,
      "count": 2904,
      "max": [
        1965
      ],
      "min": [
        0
      ],
      "type": "SCALAR"
    }
  ],
  "materials": [
    {
      "pbrMetallicRoughness": {
        "baseColorFactor": [
          0.6666666666666666,
          0.6666666666666666,
          0.6666666666666666,
          1
        ],
        "metallicFactor": 0.3,
        "roughnessFactor": 0.45
      },
      "doubleSided": true,
      "name": "Default Material",
      "extensions": {
        "KHR_materials_ior": {
          "ior": 1.4999999999999998
        }
      }
    }
  ],
  "meshes": [
    {
      "primitives": [
        {
          "mode": 4,
          "attributes": {
            "POSITION": 0,
            "NORMAL": 1,
            "TEXCOORD_0": 2
          },
          "indices": 3,
          "material": 0
        }
      ]
    }
  ],
  "extensionsUsed": [
    "KHR_materials_ior"
  ]
}